<svg width="41" height="40" viewBox="0 0 41 40" fill="none" xmlns="http://www.w3.org/2000/svg">
<path d="M14.3728 12.3394V11.0405C11.5081 11.0405 9.17725 13.3714 9.17725 16.2361H10.4761C10.4761 14.0871 12.2238 12.3394 14.3728 12.3394Z" fill="#127FCB"/>
<path d="M38.4024 0H22.8157C21.7415 0 20.8673 0.874154 20.8673 1.94834V3.56546C19.825 3.19073 18.6716 3.28035 17.7 3.81744C17.0109 2.67377 15.7614 1.94834 14.3404 1.94834C12.9733 1.94834 11.7329 2.67377 11.0451 3.81809C9.87677 3.16994 8.44084 3.1628 7.25755 3.84602L7.2004 3.87914C6.01711 4.56236 5.30597 5.81059 5.28194 7.1452C3.94733 7.16923 2.6991 7.88037 2.01588 9.06366L1.98276 9.12081C1.29954 10.3041 1.30863 11.7407 1.95483 12.9084C0.810508 13.5968 0.0850774 14.8366 0.0850774 16.203V16.2686C0.0850774 17.6357 0.810508 18.8761 1.95483 19.5639C1.30798 20.7316 1.29954 22.1675 1.98276 23.3515L2.01588 23.4086C2.69975 24.5919 3.94798 25.303 5.28194 25.3271C5.28908 25.7245 5.36442 26.1116 5.48716 26.4811L0 35.4357L6.10674 33.9089L7.62969 39.9994L13.3714 30.3902C13.7014 30.4778 14.0475 30.5239 14.4054 30.5239C14.7392 30.5239 15.0652 30.4791 15.3782 30.3973L21.1161 40L22.639 33.9095L28.7458 35.4363L23.2586 26.4818C23.382 26.1123 23.4567 25.7252 23.4638 25.3277C24.7991 25.3037 26.0473 24.5926 26.7299 23.4093L26.763 23.3521C27.4469 22.1688 27.4378 20.7323 26.7909 19.5645C27.7534 18.9852 28.4132 18.0104 28.6009 16.8862H38.4024C39.4765 16.8862 40.3507 16.0121 40.3507 14.9379V1.94834C40.3507 0.874154 39.4765 0 38.4024 0ZM31.2585 2.59778V3.89667H29.9596V2.59778H28.6607V3.89667H27.3618V1.29889H33.8562V3.89667H32.5574V2.59778H31.2585ZM20.8673 11.9375C19.4704 9.8339 17.0824 8.44279 14.3729 8.44279C10.0755 8.44279 6.57953 11.9388 6.57953 16.2361C6.57953 20.5335 10.0755 24.0295 14.3729 24.0295C18.4943 24.0295 21.8694 20.8121 22.1396 16.7576C22.3513 16.8362 22.5773 16.8856 22.8157 16.8856H23.432C23.0969 21.596 19.1671 25.3284 14.3729 25.3284C9.35916 25.3284 5.28064 21.2499 5.28064 16.2361C5.28064 11.2224 9.35916 7.1439 14.3729 7.1439C16.8135 7.1439 19.1632 8.14535 20.8673 9.88651V11.9375ZM20.8673 16.2361C20.8673 19.8172 17.9539 22.7306 14.3729 22.7306C10.7918 22.7306 7.87842 19.8172 7.87842 16.2361C7.87842 12.6551 10.7918 9.74168 14.3729 9.74168C17.9539 9.74168 20.8673 12.6551 20.8673 16.2361ZM8.12716 36.6346L7.05233 32.3339L2.76794 33.4049L6.22039 27.7709C6.49575 28.0911 6.82113 28.3736 7.20105 28.5931L7.2582 28.6263C8.44149 29.3088 9.87872 29.3004 11.0464 28.6542C11.3354 29.1341 11.7277 29.5348 12.1855 29.8446L8.12716 36.6346ZM25.9778 33.4055L21.6934 32.3346L20.6186 36.6352L16.5635 29.8498C17.0181 29.5394 17.4103 29.1374 17.7006 28.6548C18.8683 29.301 20.3043 29.3095 21.4882 28.6269L21.5454 28.5938C21.9253 28.3743 22.2507 28.0918 22.526 27.7716L25.9778 33.4055ZM25.6096 18.6865L24.6835 18.9982L25.3297 19.7315C26.0609 20.5608 26.1843 21.7545 25.6382 22.7014L25.605 22.7585C25.0582 23.7048 23.9671 24.1964 22.8787 23.9762L21.9207 23.7833L22.1136 24.7413C22.3318 25.8252 21.8428 26.9208 20.8959 27.4676L20.8388 27.5008C19.8925 28.047 18.6975 27.9229 17.8688 27.1923L17.1356 26.5461L16.8239 27.4722C16.4706 28.521 15.499 29.225 14.3404 29.225C13.2461 29.225 12.2745 28.521 11.9219 27.4728L11.6101 26.5467L10.8769 27.1929C10.0482 27.9242 8.85454 28.0489 7.907 27.5014L7.84985 27.4683C6.90296 26.9215 6.41392 25.8259 6.63214 24.7419L6.82502 23.784L5.86709 23.9769C4.78122 24.1964 3.68755 23.7061 3.14072 22.7592L3.1076 22.702C2.56076 21.7551 2.68481 20.5614 3.41608 19.7321L4.06228 18.9989L3.13617 18.6871C2.08797 18.3338 1.38397 17.3623 1.38397 16.2686V16.203C1.38397 15.1094 2.08797 14.1378 3.13617 13.7851L4.06228 13.4734L3.41608 12.7402C2.68546 11.9108 2.56141 10.7172 3.1076 9.77026L3.14072 9.71311C3.68755 8.76622 4.78576 8.27588 5.86709 8.4954L6.82502 8.68828L6.63214 7.73035C6.41327 6.64578 6.90296 5.55016 7.84985 5.00398L7.907 4.97086C8.85454 4.42337 10.0476 4.54807 10.8769 5.27934L11.6101 5.92554L11.9219 4.99943C12.2752 3.95123 13.2467 3.24723 14.4054 3.24723C15.4997 3.24723 16.4712 3.95123 16.8239 4.99943L17.1356 5.92554L17.8688 5.27934C18.6995 4.54937 19.8932 4.42467 20.8388 4.97086L20.8673 4.98774V8.1434C19.0346 6.6763 16.7427 5.84501 14.3729 5.84501C8.64347 5.84501 3.98175 10.5067 3.98175 16.2361C3.98175 21.9655 8.64347 26.6273 14.3729 26.6273C19.8834 26.6273 24.3932 22.3124 24.7309 16.8856H27.2774C27.0682 17.7136 26.4545 18.4027 25.6096 18.6865ZM39.0518 14.9372C39.0518 15.2957 38.7609 15.5867 38.4024 15.5867H22.8157C22.4572 15.5867 22.1662 15.2957 22.1662 14.9372V1.94834C22.1662 1.58984 22.4572 1.29889 22.8157 1.29889H26.0629V5.19556H35.1551V1.29889H38.4024C38.7609 1.29889 39.0518 1.58984 39.0518 1.94834V14.9372Z" fill="#127FCB"/>
<path d="M33.8564 12.9889H35.1553V14.2878H33.8564V12.9889Z" fill="#127FCB"/>
<path d="M36.4541 12.9889H37.753V14.2878H36.4541V12.9889Z" fill="#127FCB"/>
<path d="M31.2583 12.9889H32.5572V14.2878H31.2583V12.9889Z" fill="#127FCB"/>
<path d="M31.2583 10.3911H37.7528V11.69H31.2583V10.3911Z" fill="#127FCB"/>
<path d="M13.074 19.2145L11.5848 17.7253L10.6665 18.6436L13.074 21.0511L19.3782 14.7469L18.4599 13.8286L13.074 19.2145Z" fill="#127FCB"/>
</svg>
