<svg width="14" height="14" viewBox="0 0 14 14" fill="none" xmlns="http://www.w3.org/2000/svg">
<path d="M7.00875 4.08341C9.78017 4.08341 11.7122 5.84042 12.5527 6.78775C11.7355 7.85933 9.8035 9.91675 7.00875 9.91675C4.43042 9.91675 2.38292 7.85408 1.47992 6.76267C2.35083 5.80192 4.28983 4.08341 7.00875 4.08341ZM7.00875 2.91675C2.5935 2.91675 0 6.73817 0 6.73817C0 6.73817 2.82042 11.0834 7.00875 11.0834C11.5197 11.0834 14 6.73817 14 6.73817C14 6.73817 11.4969 2.91675 7.00875 2.91675ZM7 4.66675C5.71142 4.66675 4.66667 5.71208 4.66667 7.00008C4.66667 8.28867 5.71142 9.33342 7 9.33342C8.28858 9.33342 9.33333 8.28867 9.33333 7.00008C9.33333 5.71208 8.28858 4.66675 7 4.66675Z" fill="#939393"/>
</svg>
