<svg width="19" height="18" viewBox="0 0 19 18" fill="none" xmlns="http://www.w3.org/2000/svg">
<path d="M5.33259 0C3.9187 0.0013174 2.5631 0.562063 1.56334 1.55916C0.56357 2.55625 0.00132094 3.90823 0 5.31833V12.6823C0.00149702 14.0923 0.563823 15.4441 1.56357 16.4411C2.56332 17.438 3.91882 17.9987 5.33259 18H12.7163C14.1301 17.9985 15.4855 17.4377 16.4851 16.4406C17.4848 15.4435 18.0469 14.0917 18.0482 12.6817V5.31767C18.0467 3.90768 17.4844 2.55588 16.4847 1.55892C15.4849 0.561972 14.1294 0.00131712 12.7157 0H5.33259ZM13.9469 3.27267C14.1092 3.27267 14.2679 3.32066 14.4028 3.41058C14.5377 3.5005 14.6429 3.62831 14.705 3.77784C14.7671 3.92737 14.7834 4.09191 14.7517 4.25065C14.72 4.40939 14.6419 4.5552 14.5271 4.66965C14.4124 4.78409 14.2662 4.86203 14.107 4.89361C13.9479 4.92518 13.7829 4.90898 13.6329 4.84704C13.483 4.7851 13.3549 4.68022 13.2647 4.54564C13.1745 4.41107 13.1264 4.25285 13.1264 4.091C13.127 3.87427 13.2136 3.66658 13.3672 3.51326C13.5208 3.35995 13.729 3.27345 13.9463 3.27267H13.9469ZM9.02445 4.5C9.91684 4.50007 10.7892 4.76404 11.5311 5.25855C12.2731 5.75305 12.8514 6.45588 13.1928 7.27815C13.5343 8.10043 13.6236 9.00522 13.4494 9.87811C13.2753 10.751 12.8455 11.5528 12.2145 12.1821C11.5835 12.8114 10.7795 13.24 9.90426 13.4136C9.02901 13.5872 8.1218 13.498 7.29735 13.1574C6.4729 12.8168 5.76823 12.24 5.27246 11.5C4.77668 10.76 4.51206 9.89 4.51206 9C4.51276 7.80674 4.98837 6.66256 5.83439 5.8188C6.68041 4.97504 7.82766 4.5007 9.02412 4.5H9.02445ZM9.02445 5.31833C8.29427 5.31833 7.58049 5.53428 6.97336 5.93886C6.36624 6.34344 5.89304 6.91849 5.61361 7.59129C5.33418 8.26409 5.26107 9.00442 5.40352 9.71866C5.54597 10.4329 5.89759 11.089 6.41391 11.6039C6.93022 12.1188 7.58805 12.4695 8.3042 12.6116C9.02036 12.7537 9.76267 12.6807 10.4373 12.4021C11.1119 12.1234 11.6885 11.6514 12.0941 11.0459C12.4998 10.4404 12.7163 9.72856 12.7163 9.00033C12.7149 8.02418 12.3254 7.08841 11.6333 6.3982C10.9412 5.70798 10.0029 5.31965 9.02412 5.31833H9.02445Z" fill="#0879C9" fill-opacity="0.6"/>
</svg>
