<svg width="19" height="18" viewBox="0 0 19 18" fill="none" xmlns="http://www.w3.org/2000/svg">
<path d="M15.8997 0H2.1485C1.57876 0.000267583 1.03244 0.226107 0.629576 0.627893C0.226713 1.02968 0.0002683 1.57454 0 2.14275V15.8572C0.0002683 16.4255 0.226713 16.9703 0.629576 17.3721C1.03244 17.7739 1.57876 17.9997 2.1485 18H15.8997C16.4695 17.9997 17.0158 17.7739 17.4187 17.3721C17.8215 16.9703 18.048 16.4255 18.0482 15.8572V2.14275C18.048 1.57454 17.8215 1.02968 17.4187 0.627893C17.0158 0.226107 16.4695 0.000267583 15.8997 0ZM5.58656 6.85708V15.0003H3.0081V6.85708H5.58656ZM3.0081 4.48713C3.0081 3.88698 3.52379 3.42854 4.29733 3.42854C5.07087 3.42854 5.55652 3.88698 5.58656 4.48713C5.58656 5.08727 5.10529 5.57129 4.29733 5.57129C3.52379 5.57163 3.0081 5.08727 3.0081 4.48713ZM15.0405 15.0003H12.462V10.7144C12.462 9.85713 12.0324 9.00017 10.9581 8.983H10.9244C9.88457 8.983 9.4546 9.86589 9.4546 10.7144V15.0003H6.87613V6.85708H9.4546V7.95437C9.76486 7.60017 10.1494 7.31829 10.5809 7.12867C11.0125 6.93906 11.4806 6.84634 11.9521 6.85708C13.6581 6.85708 15.0418 8.02708 15.0418 10.397L15.0405 15.0003Z" fill="#0879C9" fill-opacity="0.6"/>
</svg>
