<svg width="18" height="15" viewBox="0 0 18 15" fill="none" xmlns="http://www.w3.org/2000/svg">
<path d="M18 1.72664C17.3256 2.02476 16.6102 2.22046 15.8777 2.30721C16.6492 1.84737 17.2266 1.12333 17.5022 0.270142C16.7769 0.698437 15.9838 1.00027 15.1568 1.16266C14.6003 0.571563 13.8639 0.180008 13.0617 0.0486706C12.2595 -0.0826668 11.4362 0.0535468 10.7195 0.436204C10.0027 0.81886 9.43256 1.42659 9.09729 2.16523C8.76203 2.90387 8.6804 3.73216 8.86504 4.52177C7.39672 4.4483 5.9603 4.06771 4.64902 3.40469C3.33775 2.74167 2.18093 1.81104 1.25366 0.673224C0.781685 1.48462 0.637205 2.44481 0.849587 3.35863C1.06197 4.27245 1.61528 5.07133 2.39705 5.5929C1.80994 5.57389 1.23587 5.41535 0.722583 5.13047V5.1766C0.722999 6.02689 1.01801 6.85092 1.55767 7.50919C2.09733 8.16746 2.8485 8.61953 3.68399 8.78886C3.3671 8.8746 3.04015 8.91783 2.7118 8.91741C2.47822 8.91784 2.24517 8.89532 2.01601 8.85018C2.25214 9.58192 2.71144 10.2219 3.3298 10.6808C3.94816 11.1396 4.69474 11.3945 5.46535 11.4099C4.15752 12.4336 2.54223 12.9885 0.879679 12.9851C0.585673 12.9856 0.291906 12.9683 0 12.9333C1.68815 14.0165 3.65376 14.5909 5.66108 14.5878C12.4534 14.5878 16.1679 8.9762 16.1679 4.11053C16.1679 3.95104 16.1636 3.79014 16.158 3.63234C16.8806 3.11126 17.5044 2.46594 18 1.72664Z" fill="#0879C9" fill-opacity="0.6"/>
</svg>
