<svg width="19" height="19" viewBox="0 0 19 19" fill="none" xmlns="http://www.w3.org/2000/svg">
<path d="M5.45539 0.154297C4.0415 0.155614 2.68591 0.71636 1.68614 1.71346C0.686372 2.71055 0.124124 4.06252 0.122803 5.47263V12.8366C0.1243 14.2466 0.686626 15.5984 1.68637 16.5954C2.68612 17.5923 4.04162 18.153 5.45539 18.1543H12.8391C14.2529 18.1528 15.6083 17.592 16.6079 16.5949C17.6076 15.5978 18.1697 14.246 18.171 12.836V5.47197C18.1695 4.06198 17.6072 2.71017 16.6075 1.71322C15.6077 0.716269 14.2522 0.155614 12.8385 0.154297H5.45539ZM14.0697 3.42696C14.232 3.42696 14.3907 3.47496 14.5256 3.56488C14.6605 3.6548 14.7657 3.7826 14.8278 3.93213C14.8899 4.08166 14.9062 4.2462 14.8745 4.40495C14.8428 4.56369 14.7647 4.7095 14.6499 4.82395C14.5352 4.93839 14.389 5.01633 14.2298 5.04791C14.0707 5.07948 13.9057 5.06328 13.7557 5.00134C13.6058 4.9394 13.4777 4.83451 13.3875 4.69994C13.2973 4.56536 13.2492 4.40715 13.2492 4.2453C13.2498 4.02856 13.3364 3.82087 13.49 3.66756C13.6436 3.51424 13.8518 3.42775 14.0691 3.42696H14.0697ZM9.14725 4.6543C10.0396 4.65436 10.912 4.91834 11.6539 5.41285C12.3959 5.90735 12.9742 6.61018 13.3156 7.43245C13.6571 8.25473 13.7464 9.15951 13.5722 10.0324C13.3981 10.9053 12.9683 11.7071 12.3373 12.3364C11.7063 12.9657 10.9023 13.3942 10.0271 13.5679C9.15181 13.7415 8.24461 13.6523 7.42015 13.3117C6.5957 12.9711 5.89104 12.3943 5.39526 11.6543C4.89948 10.9143 4.63486 10.0443 4.63486 9.1543C4.63557 7.96104 5.11117 6.81685 5.95719 5.97309C6.80322 5.12933 7.95047 4.655 9.14692 4.6543H9.14725ZM9.14725 5.47263C8.41707 5.47263 7.70329 5.68857 7.09616 6.09316C6.48904 6.49774 6.01584 7.07279 5.73641 7.74559C5.45699 8.41839 5.38387 9.15871 5.52633 9.87295C5.66878 10.5872 6.02039 11.2433 6.53671 11.7582C7.05303 12.2731 7.71086 12.6238 8.42701 12.7659C9.14316 12.908 9.88547 12.835 10.5601 12.5564C11.2347 12.2777 11.8113 11.8057 12.2169 11.2002C12.6226 10.5947 12.8391 9.88286 12.8391 9.15463C12.8377 8.17848 12.4483 7.24271 11.7561 6.5525C11.064 5.86228 10.1257 5.47395 9.14692 5.47263H9.14725Z" fill="#777777"/>
</svg>
