<svg width="19" height="19" viewBox="0 0 19 19" fill="none" xmlns="http://www.w3.org/2000/svg">
<path d="M16.0709 0.8125H2.31964C1.7499 0.812768 1.20358 1.03861 0.800719 1.44039C0.397856 1.84218 0.171411 2.38704 0.171143 2.95525V16.6697C0.171411 17.238 0.397856 17.7828 0.800719 18.1846C1.20358 18.5864 1.7499 18.8122 2.31964 18.8125H16.0709C16.6406 18.8122 17.1869 18.5864 17.5898 18.1846C17.9927 17.7828 18.2191 17.238 18.2194 16.6697V2.95525C18.2191 2.38704 17.9927 1.84218 17.5898 1.44039C17.1869 1.03861 16.6406 0.812768 16.0709 0.8125ZM5.7577 7.66958V15.8128H3.17924V7.66958H5.7577ZM3.17924 5.29963C3.17924 4.69948 3.69493 4.24104 4.46847 4.24104C5.24201 4.24104 5.72767 4.69948 5.7577 5.29963C5.7577 5.89977 5.27644 6.38379 4.46847 6.38379C3.69493 6.38413 3.17924 5.89977 3.17924 5.29963ZM15.2116 15.8128H12.6332V11.5269C12.6332 10.6696 12.2035 9.81267 11.1293 9.7955H11.0955C10.0557 9.7955 9.62574 10.6784 9.62574 11.5269V15.8128H7.04727V7.66958H9.62574V8.76687C9.93601 8.41267 10.3205 8.13079 10.7521 7.94117C11.1837 7.75156 11.6517 7.65884 12.1232 7.66958C13.8292 7.66958 15.213 8.83958 15.213 11.2095L15.2116 15.8128Z" fill="#777777"/>
</svg>
