<svg width="23" height="19" viewBox="0 0 23 19" fill="none" xmlns="http://www.w3.org/2000/svg">
<path d="M22.4298 2.2721C21.5976 2.63996 20.7149 2.88143 19.811 2.98848C20.7629 2.42108 21.4754 1.52768 21.8155 0.474931C20.9206 1.00341 19.9419 1.37584 18.9215 1.57621C18.2349 0.846855 17.3262 0.363714 16.3363 0.201656C15.3465 0.0395987 14.3306 0.207673 13.4463 0.679835C12.5619 1.152 11.8584 1.90188 11.4447 2.81329C11.031 3.72469 10.9303 4.74673 11.1581 5.72103C9.34632 5.63038 7.57392 5.16076 5.95593 4.34266C4.33794 3.52455 2.91054 2.37625 1.76638 0.972295C1.18401 1.97348 1.00573 3.15826 1.26779 4.28583C1.52985 5.4134 2.21258 6.39914 3.17721 7.0427C2.45278 7.01925 1.74443 6.82362 1.11108 6.47211V6.52903C1.11159 7.57821 1.47561 8.59498 2.1415 9.40722C2.80739 10.2195 3.73425 10.7773 4.76517 10.9862C4.37415 11.092 3.97074 11.1454 3.56559 11.1448C3.27737 11.1454 2.9898 11.1176 2.70705 11.0619C2.99841 11.9648 3.56514 12.7544 4.32814 13.3206C5.09114 13.8868 6.01234 14.2014 6.9632 14.2203C5.34946 15.4835 3.35634 16.1681 1.30492 16.1639C0.942146 16.1646 0.579667 16.1432 0.219482 16.1001C2.3025 17.4366 4.72787 18.1454 7.20471 18.1416C15.5858 18.1416 20.1691 11.2174 20.1691 5.2136C20.1691 5.0168 20.1639 4.81827 20.1569 4.62356C21.0485 3.9806 21.8182 3.18434 22.4298 2.2721Z" fill="#777777"/>
</svg>
