<svg width="19" height="18" viewBox="0 0 19 18" fill="none" xmlns="http://www.w3.org/2000/svg">
<path d="M9.07145 2.11246e-06C6.7838 -0.00155661 4.58015 0.859538 2.90246 2.41059C1.22476 3.96163 0.197087 6.08793 0.0255401 8.36304C-0.146007 10.6381 0.551261 12.8938 1.9775 14.6777C3.40374 16.4615 5.45348 17.6416 7.71563 17.9813V11.4444H5.4732V9.06621H7.71725V7.48375C7.71725 4.86397 8.99697 3.71394 11.1801 3.71394C11.8022 3.70569 12.424 3.74336 13.0405 3.82665V5.90225H11.5509C10.6241 5.90225 10.3003 6.77842 10.3003 7.76633V9.06621H13.0165L12.648 11.4441H10.2981V18C12.572 17.6864 14.642 16.5242 16.0904 14.7479C17.5388 12.9717 18.2577 10.7137 18.102 8.42947C17.9464 6.14528 16.9277 4.005 15.2517 2.44054C13.5757 0.876076 11.367 0.00389664 9.07145 2.11246e-06Z" fill="#0879C9" fill-opacity="0.6"/>
</svg>
