<svg width="38" height="40" viewBox="0 0 38 40" fill="none" xmlns="http://www.w3.org/2000/svg">
<path d="M26.5591 23.0919C29.7545 20.6307 31.5871 16.9092 31.5871 12.8816C31.5871 9.06687 29.9104 5.47038 26.9868 3.01428C26.7391 2.80616 26.3696 2.83835 26.1613 3.08608C25.9531 3.33382 25.9853 3.70343 26.2331 3.91163C28.8909 6.14452 30.4153 9.4139 30.4153 12.8816C30.4153 16.5428 28.7491 19.9259 25.844 22.1634C25.0478 22.7767 24.591 23.6976 24.591 24.6898V25.8854H21.8801V24.5078C21.8801 23.8401 21.3369 23.2969 20.6692 23.2969H20.5859V21.8802H21.2942C22.3309 21.8802 23.1744 21.0368 23.1744 20.0001C23.1744 18.9634 22.3309 18.1199 21.2942 18.1199C20.2574 18.1199 19.414 18.9634 19.414 20.0001V20.7084H17.9974V20C17.9974 18.9633 17.1539 18.1198 16.1172 18.1198C15.0805 18.1198 14.237 18.9633 14.237 20C14.237 21.0367 15.0805 21.8802 16.1172 21.8802H16.8255V23.2969H16.7422C16.0745 23.2969 15.5313 23.8401 15.5313 24.5078V25.8854H12.8203V24.69C12.8203 23.6978 12.363 22.7765 11.5657 22.1622C8.62165 19.894 6.95642 16.4637 6.99689 12.7512C7.0315 9.56077 8.31173 6.59819 10.6017 4.40913C12.8949 2.21686 15.9167 1.06905 19.1132 1.17889C20.958 1.24194 22.7106 1.72155 24.3224 2.60436C24.6063 2.75975 24.9624 2.65577 25.1178 2.37194C25.2732 2.08811 25.1692 1.73202 24.8853 1.57655C23.1114 0.604909 21.1829 0.0770961 19.1532 0.00772104C15.6428 -0.111342 12.3152 1.14991 9.79189 3.5621C7.27197 5.97108 5.86322 9.22991 5.82501 12.7385C5.80267 14.7985 6.25236 16.7714 7.16158 18.6025C8.02767 20.3466 9.30329 21.8985 10.8506 23.0905C11.3576 23.4812 11.6485 24.0642 11.6485 24.6901V25.9794C10.8978 26.2263 10.3542 26.9335 10.3542 27.7657C10.3542 28.5979 10.8978 29.3051 11.6485 29.5519V34.9505C11.6485 36.3075 12.7524 37.4115 14.1094 37.4115H14.2776C14.5163 38.8773 15.7906 40 17.3229 40H20.0885C21.6207 40 22.8952 38.8773 23.1338 37.4115H23.3021C24.659 37.4115 25.763 36.3075 25.763 34.9505V29.5519C26.5136 29.305 27.0572 28.5978 27.0572 27.7657C27.0572 26.9335 26.5136 26.2263 25.763 25.9794V24.6899C25.763 24.064 26.0532 23.4816 26.5591 23.0919ZM20.5859 20C20.5859 19.6094 20.9036 19.2917 21.2942 19.2917C21.6848 19.2917 22.0025 19.6094 22.0025 20C22.0025 20.3905 21.6848 20.7083 21.2942 20.7083H20.5859V20ZM16.1172 20.7084C15.7266 20.7084 15.4088 20.3906 15.4088 20.0001C15.4088 19.6095 15.7266 19.2918 16.1172 19.2918C16.5078 19.2918 16.8255 19.6095 16.8255 20.0001V20.7084H16.1172ZM17.9974 21.8802H19.414V23.2969H17.9974V21.8802ZM16.7031 24.5078C16.7031 24.4862 16.7207 24.4687 16.7422 24.4687H20.6692C20.6907 24.4687 20.7083 24.4862 20.7083 24.5078V25.8854H16.7031V24.5078ZM24.5911 31.0625H16.5806C16.257 31.0625 15.9947 31.3248 15.9947 31.6484C15.9947 31.972 16.257 32.2344 16.5806 32.2344H24.591V33.651H12.8203V32.2344H14.237C14.5606 32.2344 14.8229 31.972 14.8229 31.6484C14.8229 31.3248 14.5606 31.0625 14.237 31.0625H12.8203V29.6459H24.5911V31.0625ZM20.0885 38.828H17.3229C16.4395 38.828 15.6939 38.2264 15.4744 37.4114H21.9371C21.7174 38.2265 20.9719 38.828 20.0885 38.828ZM23.3021 36.2395H22.5885H14.8229H14.1094C13.3985 36.2395 12.8203 35.6612 12.8203 34.9505V34.8229H24.5911V34.9505C24.5911 35.6613 24.0128 36.2395 23.3021 36.2395ZM25.1771 28.474H12.2344C11.8438 28.474 11.5261 28.1562 11.5261 27.7657C11.5261 27.3751 11.8438 27.0573 12.2344 27.0573H16.1172H21.2942H25.1771C25.5676 27.0573 25.8853 27.3751 25.8853 27.7657C25.8853 28.1562 25.5676 28.474 25.1771 28.474Z" fill="#127FCB"/>
<path d="M3.76047 12.8816C3.76047 12.558 3.4982 12.2957 3.17453 12.2957H0.585938C0.262266 12.2957 0 12.558 0 12.8816C0 13.2052 0.262266 13.4675 0.585938 13.4675H3.17453C3.49813 13.4675 3.76047 13.2052 3.76047 12.8816Z" fill="#127FCB"/>
<path d="M4.96258 20.1397L2.72078 21.434C2.44055 21.5958 2.34453 21.9541 2.50633 22.2344C2.61492 22.4223 2.8118 22.5274 3.0143 22.5274C3.11367 22.5274 3.21453 22.5021 3.30672 22.4488L5.54844 21.1545C5.82868 20.9927 5.92469 20.6344 5.7629 20.3541C5.60102 20.0739 5.24266 19.9778 4.96258 20.1397Z" fill="#127FCB"/>
<path d="M34.691 21.434L32.4493 20.1397C32.1688 19.9778 31.8106 20.0739 31.6489 20.3542C31.4871 20.6344 31.5831 20.9928 31.8634 21.1546L34.1051 22.4489C34.1974 22.5021 34.2981 22.5275 34.3975 22.5275C34.6 22.5275 34.797 22.4224 34.9055 22.2344C35.0673 21.9542 34.9713 21.5958 34.691 21.434Z" fill="#127FCB"/>
<path d="M36.8254 12.2957H34.2368C33.9132 12.2957 33.6509 12.558 33.6509 12.8816C33.6509 13.2052 33.9132 13.4675 34.2368 13.4675H36.8254C37.1491 13.4675 37.4113 13.2052 37.4113 12.8816C37.4113 12.558 37.1491 12.2957 36.8254 12.2957Z" fill="#127FCB"/>
<path d="M32.1569 5.70209C32.2563 5.70209 32.3571 5.67678 32.4493 5.6235L34.691 4.32928C34.9713 4.16748 35.0673 3.80912 34.9055 3.52889C34.7438 3.24866 34.3852 3.15264 34.1051 3.31444L31.8634 4.60866C31.5831 4.77045 31.4871 5.12881 31.6489 5.40905C31.7573 5.59694 31.9544 5.70209 32.1569 5.70209Z" fill="#127FCB"/>
<path d="M2.72078 4.32907L4.9625 5.62329C5.05485 5.67657 5.15555 5.70188 5.25493 5.70188C5.45743 5.70188 5.65438 5.59673 5.7629 5.40876C5.92469 5.12852 5.82868 4.77017 5.54844 4.60837L3.30672 3.31423C3.02625 3.15235 2.66805 3.24845 2.50633 3.52868C2.34453 3.80891 2.44055 4.16727 2.72078 4.32907Z" fill="#127FCB"/>
<path d="M18.7058 7.76562C17.6691 7.76562 16.8257 8.60906 16.8257 9.64586C16.8257 10.6826 17.6691 11.526 18.7058 11.526C19.7426 11.526 20.586 10.6826 20.586 9.64586C20.586 8.60906 19.7426 7.76562 18.7058 7.76562ZM18.7058 10.3541C18.3153 10.3541 17.9976 10.0364 17.9976 9.64586C17.9976 9.25531 18.3153 8.9375 18.7058 8.9375C19.0964 8.9375 19.4141 9.25524 19.4141 9.64586C19.4141 10.0364 19.0964 10.3541 18.7058 10.3541Z" fill="#127FCB"/>
<path d="M24.0397 7.46339C24.0334 7.448 24.0272 7.43269 24.0208 7.41753L24.4394 6.71987C24.7309 6.23378 24.6547 5.61441 24.2539 5.21362L23.1381 4.09776C22.7373 3.69706 22.118 3.62065 21.6318 3.9123L20.9342 4.33081C20.919 4.3244 20.9036 4.31816 20.8883 4.31191L20.691 3.52261C20.5535 2.97269 20.0616 2.58862 19.4948 2.58862H17.9167C17.3499 2.58862 16.858 2.97269 16.7205 3.52261L16.5232 4.31191C16.5079 4.31816 16.4925 4.32448 16.4773 4.33081L15.7797 3.9123C15.2937 3.62065 14.6743 3.69698 14.2734 4.09776L13.1576 5.21362C12.7568 5.61441 12.6805 6.23378 12.9722 6.71995L13.3907 7.41753C13.3843 7.43277 13.378 7.44808 13.3718 7.46339L12.5824 7.66073C12.0325 7.79823 11.6484 8.29011 11.6484 8.85699V10.435C11.6484 11.0018 12.0325 11.4936 12.5824 11.6312L13.3718 11.8285C13.378 11.8439 13.3843 11.8592 13.3907 11.8744L12.9721 12.5721C12.6805 13.0581 12.7568 13.6775 13.1576 14.0783L14.2734 15.1941C14.6742 15.5948 15.2936 15.6712 15.7797 15.3796L16.4773 14.9611C16.4925 14.9674 16.5079 14.9737 16.5232 14.98L16.7205 15.7692C16.858 16.3192 17.3499 16.7032 17.9167 16.7032H19.4948C20.0616 16.7032 20.5535 16.3192 20.6909 15.7692L20.8882 14.98C20.9035 14.9737 20.9189 14.9674 20.9341 14.9611L21.6317 15.3796C22.1177 15.6711 22.7371 15.5949 23.1381 15.1941L24.2538 14.0782C24.6546 13.6775 24.7308 13.058 24.4392 12.5719L24.0207 11.8743C24.0271 11.8591 24.0334 11.8438 24.0396 11.8285L24.829 11.6311C25.3788 11.4935 25.7629 11.0017 25.7629 10.4349V8.85691C25.7629 8.29003 25.3788 7.79816 24.8289 7.66066L24.0397 7.46339ZM24.5912 10.435C24.5912 10.4631 24.5721 10.4875 24.5448 10.4943L23.4575 10.7661C23.2653 10.8142 23.1105 10.9561 23.0458 11.1434C22.984 11.3224 22.9128 11.4949 22.8341 11.6561C22.7472 11.8344 22.7563 12.0445 22.8584 12.2146L23.4345 13.1749C23.4491 13.199 23.4452 13.2298 23.4253 13.2497L22.3095 14.3655C22.2897 14.3853 22.259 14.3892 22.2348 14.3747L21.2745 13.7985C21.1044 13.6964 20.8941 13.6874 20.7161 13.7743C20.5548 13.853 20.3823 13.9242 20.2034 13.9859C20.0161 14.0505 19.8741 14.2054 19.826 14.3977L19.5542 15.485C19.5474 15.5122 19.5231 15.5313 19.4949 15.5313H17.9167C17.8887 15.5313 17.8642 15.5122 17.8574 15.4849L17.5856 14.3976C17.5376 14.2053 17.3955 14.0504 17.2082 13.9858C17.0294 13.9241 16.8569 13.8529 16.6955 13.7743C16.6142 13.7346 16.5263 13.7149 16.4386 13.7149C16.334 13.7149 16.2296 13.7428 16.1372 13.7984L15.1769 14.3746C15.1526 14.3892 15.122 14.3853 15.1021 14.3654L13.9863 13.2496C13.9664 13.2297 13.9626 13.1989 13.977 13.1748L14.5533 12.2145C14.6554 12.0444 14.6645 11.8343 14.5775 11.656C14.4988 11.4949 14.4277 11.3223 14.3659 11.1433C14.3012 10.956 14.1463 10.8141 13.9541 10.766L12.8669 10.4943C12.8395 10.4875 12.8204 10.463 12.8204 10.4349V8.85691C12.8204 8.82878 12.8395 8.80433 12.8668 8.79753L13.9541 8.52573C14.1463 8.47769 14.3011 8.33581 14.3659 8.14855C14.4277 7.96949 14.4989 7.79691 14.5775 7.63581C14.6645 7.45753 14.6554 7.24745 14.5533 7.07737L13.9771 6.11706C13.9626 6.09292 13.9664 6.06214 13.9863 6.04222L15.1021 4.92636C15.1218 4.90651 15.1525 4.90261 15.1769 4.91714L16.1372 5.49331C16.3073 5.59534 16.5175 5.60441 16.6955 5.51745C16.8568 5.43878 17.0294 5.36761 17.2082 5.30589C17.3955 5.24128 17.5376 5.08636 17.5856 4.89409L17.8574 3.80683C17.8642 3.77956 17.8886 3.7605 17.9167 3.7605H19.4948C19.5228 3.7605 19.5473 3.77956 19.5541 3.80683L19.8259 4.89409C19.8739 5.08636 20.0159 5.24128 20.2033 5.30589C20.3821 5.36761 20.5546 5.43878 20.7159 5.51745C20.8941 5.60441 21.1043 5.59534 21.2743 5.49331L22.2346 4.91714C22.259 4.90253 22.2896 4.90644 22.3094 4.92628L23.4252 6.04214C23.4451 6.06206 23.4489 6.09284 23.4345 6.11691L22.8582 7.0773C22.7561 7.24737 22.747 7.45745 22.834 7.63573C22.9126 7.79691 22.9838 7.96941 23.0456 8.14847C23.1103 8.33573 23.2652 8.47761 23.4573 8.52566L24.5446 8.79745C24.572 8.80425 24.591 8.8287 24.591 8.85683V10.435H24.5912Z" fill="#127FCB"/>
</svg>
