<svg width="37" height="40" viewBox="0 0 37 40" fill="none" xmlns="http://www.w3.org/2000/svg">
<path d="M35.9197 10.9288C34.5638 8.85424 31.4384 8.21695 27.1062 9.05085C26.6384 9.13898 26.1638 9.25424 25.6824 9.37627C24.1096 3.68814 21.418 0 18.2926 0C15.1672 0 12.4757 3.68814 10.9163 9.37627C10.435 9.25424 9.96041 9.13898 9.49261 9.05085C5.14685 8.18983 2.03498 8.85424 0.679051 10.9288C-1.02264 13.5593 0.543457 17.8169 4.65193 22.3729C0.665491 26.8339 -1.05654 31.1864 0.665492 33.817C1.43837 35.0034 2.77397 35.7288 4.64515 35.9729L4.82142 34.617C3.3638 34.4271 2.34685 33.939 1.80447 33.0644C0.563797 31.1593 1.92651 27.4373 5.58075 23.3424C6.25871 24.0203 6.93668 24.6983 7.67566 25.3356L8.57058 24.3254C7.83159 23.6475 7.14685 23.0102 6.53668 22.3458C7.47116 21.3843 8.45318 20.4701 9.47905 19.6068C9.47905 20.0678 9.47905 20.5424 9.47905 21.0169C9.47905 21.9119 9.47905 22.8339 9.55363 23.7288L10.9096 23.661C10.835 22.7864 10.835 21.8847 10.835 21.0169C10.835 20.1492 10.835 19.3017 10.896 18.4814C11.9333 17.6814 13.0384 16.8949 14.2316 16.1153C15.5875 15.2475 16.9435 14.461 18.2994 13.7559C19.6553 14.4339 21.0113 15.2475 22.3672 16.1153C23.5604 16.8949 24.6655 17.6814 25.7028 18.4746C25.7344 19.3017 25.7502 20.1492 25.7502 21.0169C25.7502 21.8847 25.7502 22.7864 25.6757 23.7288L27.0316 23.7966C27.0791 22.8678 27.1062 21.9458 27.1062 21.0847C27.1062 20.6102 27.1062 20.1356 27.1062 19.6746C28.1403 20.524 29.1314 21.4246 30.0757 22.3729C29.4384 23.0508 28.7197 23.7288 28.0418 24.3525L28.9367 25.3627C29.6892 24.6847 30.3807 24.0068 31.0316 23.3695C34.6858 27.4373 36.0485 31.1864 34.8079 33.0915C34.2655 33.9322 33.2485 34.4475 31.7909 34.6441L31.9672 36C33.8384 35.7559 35.174 35.0305 35.9468 33.8441C37.6689 31.1932 35.9468 26.861 31.9604 22.3932C36.0418 17.8169 37.6079 13.5593 35.9197 10.9288ZM18.2926 1.35593C20.5638 1.35593 22.9299 4.49492 24.3943 9.74915C22.2957 10.3961 20.2547 11.2171 18.2926 12.2034C16.3314 11.2078 14.2904 10.3778 12.1909 9.72203C13.6553 4.49492 16.0214 1.35593 18.2926 1.35593ZM5.58753 21.3695C2.02142 17.4034 0.50956 13.661 1.80447 11.6678C2.80786 10.1153 5.51973 9.6339 9.2621 10.3797C9.70278 10.4678 10.1502 10.5763 10.618 10.6915C10.0867 13.0256 9.75106 15.3999 9.61465 17.7898C8.19701 18.8956 6.85187 20.0913 5.58753 21.3695ZM13.4926 14.9831C12.6316 15.539 11.8113 16.1085 11.018 16.6915C11.1765 14.7984 11.4641 12.9183 11.8791 11.0644C13.5635 11.5964 15.2082 12.2466 16.8011 13.0102C15.6983 13.6158 14.5954 14.2734 13.4926 14.9831ZM23.0926 14.9831C22.0011 14.2712 20.8892 13.6271 19.7841 13.0102C21.377 12.2466 23.0218 11.5964 24.7062 11.0644C25.1211 12.9183 25.4088 14.7984 25.5672 16.6915C24.774 16.1085 23.9536 15.539 23.0926 14.9831ZM27.0045 17.7898C26.8681 15.3999 26.5324 13.0256 26.0011 10.6915C26.4621 10.5763 26.9096 10.4678 27.357 10.3797C31.0723 9.64746 33.7841 10.1153 34.8146 11.6678C36.1096 13.661 34.5774 17.4034 31.0316 21.3695C29.7672 20.0913 28.4221 18.8956 27.0045 17.7898Z" fill="#127FCB"/>
<path d="M28.462 30.5084H27.784C28.3532 30.0816 28.7736 29.4864 28.9858 28.8073C29.1979 28.1282 29.191 27.3996 28.966 26.7246C28.741 26.0497 28.3094 25.4626 27.7322 25.0466C27.155 24.6306 26.4616 24.4067 25.7501 24.4067C25.0387 24.4067 24.3452 24.6306 23.768 25.0466C23.1909 25.4626 22.7592 26.0497 22.5342 26.7246C22.3093 27.3996 22.3023 28.1282 22.5145 28.8073C22.7266 29.4864 23.147 30.0816 23.7162 30.5084H23.0383C22.7805 30.5109 22.5245 30.552 22.2789 30.6305C22.3335 30.3673 22.3608 30.0992 22.3603 29.8305C22.3603 28.7516 21.9317 27.717 21.1689 26.9541C20.406 26.1912 19.3713 25.7627 18.2925 25.7627C17.2136 25.7627 16.179 26.1912 15.4161 26.9541C14.6533 27.717 14.2247 28.7516 14.2247 29.8305C14.2242 30.0992 14.2515 30.3673 14.306 30.6305C14.0605 30.552 13.8045 30.5109 13.5467 30.5084H12.8688C13.4379 30.0816 13.8584 29.4864 14.0705 28.8073C14.2826 28.1282 14.2757 27.3996 14.0507 26.7246C13.8258 26.0497 13.3941 25.4626 12.8169 25.0466C12.2398 24.6306 11.5463 24.4067 10.8349 24.4067C10.1234 24.4067 9.42996 24.6306 8.85279 25.0466C8.27562 25.4626 7.84397 26.0497 7.61899 26.7246C7.394 27.3996 7.38709 28.1282 7.59922 28.8073C7.81136 29.4864 8.23179 30.0816 8.80096 30.5084H8.123C7.40377 30.5084 6.71399 30.7941 6.20542 31.3027C5.69685 31.8113 5.41113 32.5011 5.41113 33.2203V35.9322H11.5128V40H25.0722V35.9322H31.1738V33.2203C31.1738 32.5011 30.8881 31.8113 30.3796 31.3027C29.871 30.7941 29.1812 30.5084 28.462 30.5084ZM25.7501 25.7627C26.1524 25.7627 26.5456 25.882 26.8801 26.1054C27.2146 26.3289 27.4753 26.6466 27.6292 27.0182C27.7831 27.3899 27.8234 27.7988 27.7449 28.1934C27.6665 28.5879 27.4727 28.9503 27.1883 29.2348C26.9039 29.5192 26.5414 29.7129 26.1469 29.7914C25.7524 29.8699 25.3434 29.8296 24.9718 29.6756C24.6001 29.5217 24.2825 29.261 24.059 28.9265C23.8355 28.5921 23.7162 28.1988 23.7162 27.7966C23.7162 27.2571 23.9305 26.7398 24.3119 26.3584C24.6934 25.977 25.2107 25.7627 25.7501 25.7627ZM10.8349 25.7627C11.2371 25.7627 11.6304 25.882 11.9648 26.1054C12.2993 26.3289 12.56 26.6466 12.7139 27.0182C12.8679 27.3899 12.9082 27.7988 12.8297 28.1934C12.7512 28.5879 12.5575 28.9503 12.273 29.2348C11.9886 29.5192 11.6262 29.7129 11.2317 29.7914C10.8371 29.8699 10.4282 29.8296 10.0565 29.6756C9.68488 29.5217 9.36722 29.261 9.14374 28.9265C8.92025 28.5921 8.80096 28.1988 8.80096 27.7966C8.80096 27.2571 9.01525 26.7398 9.39668 26.3584C9.77811 25.977 10.2954 25.7627 10.8349 25.7627ZM18.2925 27.1186C18.8288 27.1186 19.3532 27.2777 19.7991 27.5756C20.2451 27.8736 20.5927 28.2972 20.7979 28.7927C21.0032 29.2882 21.0569 29.8335 20.9522 30.3595C20.8476 30.8856 20.5893 31.3688 20.2101 31.748C19.8308 32.1273 19.3476 32.3856 18.8215 32.4902C18.2955 32.5949 17.7502 32.5412 17.2547 32.3359C16.7592 32.1306 16.3356 31.7831 16.0377 31.3371C15.7397 30.8911 15.5806 30.3668 15.5806 29.8305C15.5806 29.1112 15.8663 28.4215 16.3749 27.9129C16.8835 27.4043 17.5733 27.1186 18.2925 27.1186ZM6.76707 34.5762V33.2203C6.76707 32.8607 6.90992 32.5158 7.16421 32.2615C7.4185 32.0072 7.76338 31.8644 8.123 31.8644H13.5467C13.9063 31.8644 14.2512 32.0072 14.5055 32.2615C14.7598 32.5158 14.9027 32.8607 14.9027 33.2203H14.2247C13.7514 33.2232 13.2872 33.3498 12.878 33.5877C12.4689 33.8256 12.1291 34.1664 11.8925 34.5762H6.76707ZM23.7162 38.644H12.8688V35.9322C12.8688 35.5725 13.0116 35.2277 13.2659 34.9734C13.5202 34.7191 13.8651 34.5762 14.2247 34.5762H22.3603C22.7199 34.5762 23.0648 34.7191 23.3191 34.9734C23.5734 35.2277 23.7162 35.5725 23.7162 35.9322V38.644ZM29.8179 34.5762H24.6925C24.4559 34.1664 24.1161 33.8256 23.707 33.5877C23.2978 33.3498 22.8335 33.2232 22.3603 33.2203H21.6823C21.6823 32.8607 21.8252 32.5158 22.0795 32.2615C22.3337 32.0072 22.6786 31.8644 23.0383 31.8644H28.462C28.8216 31.8644 29.1665 32.0072 29.4208 32.2615C29.6751 32.5158 29.8179 32.8607 29.8179 33.2203V34.5762Z" fill="#127FCB"/>
</svg>
