<svg width="12" height="12" viewBox="0 0 12 12" fill="none" xmlns="http://www.w3.org/2000/svg">
<g clip-path="url(#clip0)">
<path d="M11.8625 5.66819C11.8624 5.66805 11.8623 5.66789 11.8621 5.66775L9.41278 3.23025C9.22929 3.04765 8.9325 3.04833 8.74985 3.23184C8.56723 3.41533 8.56793 3.71212 8.75142 3.89475L10.3959 5.53125H0.46875C0.209859 5.53125 0 5.7411 0 5.99999C0 6.25888 0.209859 6.46874 0.46875 6.46874H10.3959L8.75144 8.10524C8.56795 8.28787 8.56725 8.58466 8.74988 8.76815C8.93252 8.95169 9.22934 8.95232 9.4128 8.76974L11.8621 6.33224C11.8623 6.3321 11.8624 6.33194 11.8625 6.3318C12.0461 6.14857 12.0455 5.85082 11.8625 5.66819Z" fill="#127FCB"/>
</g>
<defs>
<clipPath id="clip0">
<rect width="12" height="12" fill="white"/>
</clipPath>
</defs>
</svg>
