<svg width="48" height="40" viewBox="0 0 48 40" fill="none" xmlns="http://www.w3.org/2000/svg">
<path d="M28.9659 22.0914C33.2525 20.3505 36.0306 16.1566 35.9618 11.5306C35.9618 5.17255 30.4687 0 23.7169 0C16.965 0 11.472 5.17255 11.472 11.5306C11.4031 16.1566 14.1811 20.3505 18.4678 22.0914L18.5627 22.1429L19.2109 23.2065C18.0536 23.8764 17.6585 25.3577 18.3283 26.5149C18.4163 26.667 18.5207 26.8092 18.6396 26.9388C17.7321 27.9337 17.8028 29.4758 18.7976 30.3835C19.2495 30.7957 19.8399 31.0231 20.4515 31.0204H26.9822C28.3288 31.0263 29.4252 29.9394 29.4311 28.5928C29.4338 27.981 29.2064 27.3906 28.7942 26.9388C29.6982 25.9534 29.6321 24.4217 28.6466 23.5179C28.5171 23.399 28.375 23.2946 28.2228 23.2065L28.871 22.1429L28.9659 22.0914ZM26.9821 29.3878H20.4514C20.0006 29.3878 19.6351 29.0222 19.6351 28.5714C19.6351 28.1206 20.0006 27.7551 20.4514 27.7551H26.9821C27.4329 27.7551 27.7984 28.1206 27.7984 28.5714C27.7984 29.0222 27.4329 29.3878 26.9821 29.3878ZM26.9821 26.1224H20.4514C20.0006 26.1224 19.6351 25.7569 19.6351 25.3061C19.6351 24.8553 20.0006 24.4898 20.4514 24.4898H26.9821C27.4329 24.4898 27.7984 24.8553 27.7984 25.3061C27.7984 25.7569 27.4329 26.1224 26.9821 26.1224ZM28.2249 20.6358L27.8985 20.8132C27.7722 20.882 27.6661 20.983 27.5911 21.1057L26.5237 22.8571H26.1657V16.6645L30.0082 12.822L28.8539 11.6677L24.7723 15.7493C24.6192 15.9023 24.5332 16.1099 24.5331 16.3264V22.857H22.9004V16.3264C22.9003 16.1099 22.8143 15.9023 22.6612 15.7493L18.5796 11.6677L17.4253 12.8219L21.2678 16.6644V22.857H20.9098L19.8424 21.1056C19.7674 20.9829 19.6613 20.8819 19.535 20.8131L19.2086 20.6357C19.1824 20.6217 19.1555 20.6091 19.1281 20.5979C15.4374 19.1131 13.0427 15.5083 13.1045 11.5306C13.1045 6.07306 17.8649 1.63265 23.7168 1.63265C29.5686 1.63265 34.329 6.07306 34.329 11.5306C34.3908 15.5083 31.996 19.1131 28.3054 20.5979C28.278 20.6092 28.251 20.6218 28.2249 20.6358Z" fill="#127FCB"/>
<path d="M6.93862 0.0866301L6.2085 1.54688L11.1062 3.99571L11.8363 2.53546L6.93862 0.0866301Z" fill="#127FCB"/>
<path d="M40.5968 0.3995L35.4023 2.13208L35.9189 3.68081L41.1134 1.94823L40.5968 0.3995Z" fill="#127FCB"/>
<path d="M8.20655 10.6119H3.30859V12.2446H8.20655V10.6119Z" fill="#127FCB"/>
<path d="M44.125 10.6119H39.2271V12.2446H44.125V10.6119Z" fill="#127FCB"/>
<path d="M11.1062 20.49L6.2085 22.9388L6.93862 24.3991L11.8363 21.9503L11.1062 20.49Z" fill="#127FCB"/>
<path d="M36.3258 20.4968L35.5957 21.957L40.4934 24.4059L41.2235 22.9456L36.3258 20.4968Z" fill="#127FCB"/>
<path d="M47.3899 32.6516V31.0189C36.7398 31.0189 25.4225 33.5934 25.3495 38.3659H22.0834C22.0104 33.5934 10.6931 31.0189 0.0429688 31.0189V32.6516C12.0021 32.6516 20.3529 35.653 20.4467 38.3659H0.0429688V39.9985H47.3899V38.3659H26.9861C27.08 35.653 35.4308 32.6516 47.3899 32.6516Z" fill="#127FCB"/>
<path d="M0.0858776 35.1054L0 36.7357L15.5129 37.5528L15.5988 35.9225L0.0858776 35.1054Z" fill="#127FCB"/>
<path d="M47.3479 35.0987L31.835 35.9174L31.921 37.5477L47.4339 36.729L47.3479 35.0987Z" fill="#127FCB"/>
</svg>
