<svg width="12" height="14" viewBox="0 0 12 14" fill="none" xmlns="http://www.w3.org/2000/svg">
<path d="M4.83333 9.33333C4.83333 8.68933 5.356 8.16667 6 8.16667C6.644 8.16667 7.16667 8.68933 7.16667 9.33333C7.16667 9.76383 6.931 10.136 6.58333 10.3384V11.6667H5.41667V10.3384C5.069 10.136 4.83333 9.76383 4.83333 9.33333ZM11.25 5.83333V14H0.75V5.83333H2.5V3.5C2.5 1.56742 4.06742 0 6 0C7.93258 0 9.5 1.56742 9.5 3.5V5.83333H11.25ZM3.66667 5.83333H8.33333V3.5C8.33333 2.21317 7.28625 1.16667 6 1.16667C4.71375 1.16667 3.66667 2.21317 3.66667 3.5V5.83333ZM10.0833 7H1.91667V12.8333H10.0833V7Z" fill="white"/>
</svg>
