<svg width="14" height="14" viewBox="0 0 14 14" fill="none" xmlns="http://www.w3.org/2000/svg">
<path d="M5.83333 9.33333C5.83333 8.68933 6.356 8.16667 7 8.16667C7.644 8.16667 8.16667 8.68933 8.16667 9.33333C8.16667 9.76383 7.931 10.136 7.58333 10.3384V11.6667H6.41667V10.3384C6.069 10.136 5.83333 9.76383 5.83333 9.33333ZM12.25 5.83333V14H1.75V5.83333H3.5V3.5C3.5 1.56742 5.06742 0 7 0C8.93258 0 10.5 1.56742 10.5 3.5V5.83333H12.25ZM4.66667 5.83333H9.33333V3.5C9.33333 2.21317 8.28625 1.16667 7 1.16667C5.71375 1.16667 4.66667 2.21317 4.66667 3.5V5.83333ZM11.0833 7H2.91667V12.8333H11.0833V7Z" fill="#939393"/>
</svg>
