<svg width="256" height="1053" viewBox="0 0 256 1053" fill="none" xmlns="http://www.w3.org/2000/svg">
<path d="M-219.858 10.1901C-212.265 -2.41163 -194.375 -3.29267 -185.672 7.50674C-184.117 9.52898 -183.013 11.8613 -182.435 14.3466C-173.14 57.2052 -153.846 99.4841 -125.095 132.264C-112.419 146.706 -98.6223 160.423 -84.7031 173.85C-58.4174 199.217 -32.0957 224.933 -5.37736 249.825C24.2968 277.477 54.6798 304.882 83.8276 333.034C96.5824 345.38 109.314 358.041 121.683 370.742C159.978 410.256 196.211 452.577 225.958 498.547C247.905 532.449 263.811 566.895 249.972 607.879C236 649.228 203.79 685.142 174.39 715.466C93.002 799.376 -8.09593 869.189 -102.225 940.239C-118.958 952.874 -140.424 966.241 -148.706 984.526C-155.616 999.786 -156.018 1017.67 -157.057 1035.51C-157.283 1039.25 -157.633 1043.3 -159.078 1046.59C-160.037 1049.05 -162.071 1050.93 -164.594 1051.7C-168.985 1053.01 -175.688 1051.13 -182.161 1048.96C-192.591 1045.46 -203.038 1041.82 -213.426 1038.15C-217.069 1036.88 -220.659 1035.61 -224.201 1034.41C-237.568 1029.89 -252.059 1024.06 -261.869 1013.41C-267.582 1007.1 -271.738 999.527 -274.005 991.313C-279.057 974.74 -289.146 948.408 -275.173 932.889C-264.673 921.229 -250.153 912.741 -237.144 903.81C-207.921 883.733 -179.149 862.808 -150.329 842.272C-115.999 817.818 -81.7566 792.554 -49.6207 765.667C-0.635567 724.649 57.1786 674.336 79.8212 612.029C99.5734 557.53 73.7903 499.638 49.0102 452.278C16.3392 389.832 -31.0715 337.117 -83.2935 289.11C-107.471 266.873 -133.459 245.89 -157.324 223.642C-178.042 204.331 -197.601 183.267 -212.575 159.81C-224.161 141.784 -231.9 121.557 -235.307 100.396C-240.035 71.4413 -235.174 35.6008 -219.858 10.1901Z" fill="#284268" fill-opacity="0.04"/>
</svg>
