<svg width="28" height="28" viewBox="0 0 28 28" fill="none" xmlns="http://www.w3.org/2000/svg">
<circle cx="14" cy="14" r="14" fill="#E3F2FD"/>
<path d="M13.5242 7.92495C13.6739 7.46429 14.3256 7.4643 14.4753 7.92495L15.58 11.3249C15.6469 11.5309 15.8389 11.6704 16.0555 11.6704H19.6304C20.1148 11.6704 20.3162 12.2902 19.9243 12.5749L17.0322 14.6762C16.8569 14.8035 16.7836 15.0292 16.8505 15.2352L17.9552 18.6351C18.1049 19.0958 17.5777 19.4788 17.1858 19.1941L14.2937 17.0928C14.1184 16.9655 13.8811 16.9655 13.7059 17.0928L10.8137 19.1941C10.4219 19.4788 9.89462 19.0958 10.0443 18.6351L11.149 15.2352C11.2159 15.0292 11.1426 14.8035 10.9674 14.6762L8.07521 12.5749C7.68335 12.2902 7.88474 11.6704 8.3691 11.6704H11.944C12.1606 11.6704 12.3526 11.5309 12.4195 11.3249L13.5242 7.92495Z" fill="#127FCB" fill-opacity="0.5"/>
</svg>
