<svg width="50" height="50" viewBox="0 0 50 50" fill="none" xmlns="http://www.w3.org/2000/svg">
<circle cx="25" cy="25" r="25" fill="#E3F2FD"/>
<circle cx="25" cy="25" r="25" fill="#E3F2FD"/>
<circle cx="25" cy="25" r="25" fill="#E3F2FD"/>
<circle cx="25" cy="25" r="25" fill="#E3F2FD"/>
<circle cx="25" cy="25" r="25" fill="#E3F2FD"/>
<circle cx="25" cy="25" r="25" fill="#E3F2FD"/>
<circle cx="25" cy="25" r="25" fill="#E3F2FD"/>
<circle cx="25" cy="25" r="25" fill="#E3F2FD"/>
<circle cx="25" cy="25" r="25" fill="#E3F2FD"/>
<circle cx="25" cy="25" r="25" fill="#E3F2FD"/>
<circle cx="25" cy="25" r="25" fill="#E3F2FD"/>
<circle cx="25" cy="25" r="25" fill="#E3F2FD"/>
<circle cx="25" cy="25" r="25" fill="#E3F2FD"/>
<circle cx="25" cy="25" r="25" fill="#E3F2FD"/>
<circle cx="25" cy="25" r="25" fill="#E3F2FD"/>
<path d="M50 25C50 38.8071 38.8071 50 25 50C11.1929 50 0 38.8071 0 25C0 11.1929 11.1929 0 25 0C38.8071 0 50 11.1929 50 25Z" fill="#E3F2FD"/>
<path d="M37.0274 26.3826C37.0274 24.3867 35.6118 22.7479 33.8246 22.6088C33.6126 21.8944 33.0398 21.3338 32.3182 21.1394C31.8369 17.1832 28.6244 14.1667 24.7637 14.1667C20.903 14.1667 17.6905 17.1832 17.2093 21.1394C16.4876 21.3338 15.9148 21.8943 15.7029 22.6088C15.6408 22.6136 15.5792 22.6203 15.5181 22.6287V17.9513C15.5181 17.5544 15.1963 17.2327 14.7995 17.2327C14.4026 17.2327 14.0809 17.5544 14.0809 17.9513V23.2039C13.1306 23.8786 12.5 25.0509 12.5 26.3826C12.5 28.3784 13.9156 30.0172 15.7028 30.1563C15.9141 30.8685 16.4839 31.4276 17.2024 31.6238C17.5085 33.4055 19.0635 34.7659 20.9313 34.7659H21.0975C21.3981 35.656 22.2405 36.2989 23.2307 36.2989H26.2967C27.5382 36.2989 28.5482 35.2889 28.5482 34.0474C28.5482 32.8059 27.5382 31.7958 26.2967 31.7958H23.2307C22.2405 31.7958 21.3981 32.4387 21.0975 33.3288H20.9313C19.8447 33.3288 18.9284 32.5865 18.6622 31.5824C19.5077 31.2907 20.1169 30.4875 20.1169 29.5443V23.2208C20.1169 22.2743 19.5034 21.4688 18.6534 21.1798C19.1023 18.0058 21.6784 15.6039 24.7637 15.6039C27.849 15.6039 30.4251 18.0058 30.874 21.1798C30.024 21.4688 29.4105 22.2743 29.4105 23.2208V29.5443C29.4105 30.733 30.3776 31.7 31.5662 31.7H31.7579C32.7339 31.7 33.5601 31.0477 33.8246 30.1563C35.6118 30.0172 37.0274 28.3784 37.0274 26.3826ZM23.2307 33.233H26.2967C26.7457 33.233 27.1111 33.5983 27.1111 34.0474C27.1111 34.4964 26.7457 34.8618 26.2967 34.8618H23.2307C22.7817 34.8618 22.4164 34.4964 22.4164 34.0474C22.4164 33.5983 22.7817 33.233 23.2307 33.233ZM13.9372 26.3826C13.9372 25.243 14.6761 24.2619 15.6138 24.0694V28.6957C14.6761 28.5032 13.9372 27.5221 13.9372 26.3826ZM18.6798 29.5443C18.6798 29.9405 18.3574 30.2629 17.9612 30.2629H17.7696C17.3733 30.2629 17.051 29.9405 17.051 29.5443C17.051 27.2384 17.051 25.3524 17.051 23.2208C17.051 22.8246 17.3733 22.5022 17.7696 22.5022H17.9612C18.3574 22.5022 18.6798 22.8246 18.6798 23.2208V29.5443ZM32.4764 29.5443C32.4764 29.9405 32.1541 30.2629 31.7579 30.2629H31.5662C31.17 30.2629 30.8477 29.9405 30.8477 29.5443V23.2208C30.8477 22.8246 31.17 22.5022 31.5662 22.5022H31.7579C32.1541 22.5022 32.4764 22.8246 32.4764 23.2208V29.5443ZM33.9136 28.6957V24.0694C34.8513 24.2619 35.5903 25.2431 35.5903 26.3826C35.5903 27.5221 34.8513 28.5032 33.9136 28.6957Z" fill="#0879C9" fill-opacity="0.8"/>
<path d="M37.0274 26.3826C37.0274 24.3867 35.6118 22.7479 33.8246 22.6088C33.6126 21.8944 33.0398 21.3338 32.3182 21.1394C31.8369 17.1832 28.6244 14.1667 24.7637 14.1667C20.903 14.1667 17.6905 17.1832 17.2093 21.1394C16.4876 21.3338 15.9148 21.8943 15.7029 22.6088C15.6408 22.6136 15.5792 22.6203 15.5181 22.6287V17.9513C15.5181 17.5544 15.1963 17.2327 14.7995 17.2327C14.4026 17.2327 14.0809 17.5544 14.0809 17.9513V23.2039C13.1306 23.8786 12.5 25.0509 12.5 26.3826C12.5 28.3784 13.9156 30.0172 15.7028 30.1563C15.9141 30.8685 16.4839 31.4276 17.2024 31.6238C17.5085 33.4055 19.0635 34.7659 20.9313 34.7659H21.0975C21.3981 35.656 22.2405 36.2989 23.2307 36.2989H26.2967C27.5382 36.2989 28.5482 35.2889 28.5482 34.0474C28.5482 32.8059 27.5382 31.7958 26.2967 31.7958H23.2307C22.2405 31.7958 21.3981 32.4387 21.0975 33.3288H20.9313C19.8447 33.3288 18.9284 32.5865 18.6622 31.5824C19.5077 31.2907 20.1169 30.4875 20.1169 29.5443V23.2208C20.1169 22.2743 19.5034 21.4688 18.6534 21.1798C19.1023 18.0058 21.6784 15.6039 24.7637 15.6039C27.849 15.6039 30.4251 18.0058 30.874 21.1798C30.024 21.4688 29.4105 22.2743 29.4105 23.2208V29.5443C29.4105 30.733 30.3776 31.7 31.5662 31.7H31.7579C32.7339 31.7 33.5601 31.0477 33.8246 30.1563C35.6118 30.0172 37.0274 28.3784 37.0274 26.3826ZM23.2307 33.233H26.2967C26.7457 33.233 27.1111 33.5983 27.1111 34.0474C27.1111 34.4964 26.7457 34.8618 26.2967 34.8618H23.2307C22.7817 34.8618 22.4164 34.4964 22.4164 34.0474C22.4164 33.5983 22.7817 33.233 23.2307 33.233ZM13.9372 26.3826C13.9372 25.243 14.6761 24.2619 15.6138 24.0694V28.6957C14.6761 28.5032 13.9372 27.5221 13.9372 26.3826ZM18.6798 29.5443C18.6798 29.9405 18.3574 30.2629 17.9612 30.2629H17.7696C17.3733 30.2629 17.051 29.9405 17.051 29.5443C17.051 27.2384 17.051 25.3524 17.051 23.2208C17.051 22.8246 17.3733 22.5022 17.7696 22.5022H17.9612C18.3574 22.5022 18.6798 22.8246 18.6798 23.2208V29.5443ZM32.4764 29.5443C32.4764 29.9405 32.1541 30.2629 31.7579 30.2629H31.5662C31.17 30.2629 30.8477 29.9405 30.8477 29.5443V23.2208C30.8477 22.8246 31.17 22.5022 31.5662 22.5022H31.7579C32.1541 22.5022 32.4764 22.8246 32.4764 23.2208V29.5443ZM33.9136 28.6957V24.0694C34.8513 24.2619 35.5903 25.2431 35.5903 26.3826C35.5903 27.5221 34.8513 28.5032 33.9136 28.6957Z" fill="#0879C9" fill-opacity="0.8"/>
</svg>
