<svg width="51" height="50" viewBox="0 0 51 50" fill="none" xmlns="http://www.w3.org/2000/svg">
<ellipse cx="25.062" cy="24.8361" rx="25.062" ry="24.8361" fill="#E3F2FD"/>
<g clip-path="url(#clip0)">
<path d="M31.8707 16.5222H30.6965C30.372 16.5222 30.1094 16.7848 30.1094 17.1093C30.1094 17.4338 30.372 17.6964 30.6965 17.6964H31.8707C32.1952 17.6964 32.4578 17.4339 32.4578 17.1093C32.4577 16.7848 32.1952 16.5222 31.8707 16.5222Z" fill="#0879C9" fill-opacity="0.8"/>
<path d="M25.9383 14.4984L25.3513 13.3242C25.2051 13.0341 24.8536 12.9177 24.5635 13.0616C24.2734 13.2067 24.1558 13.5593 24.3009 13.8494L24.888 15.0236C25.0329 15.3125 25.3837 15.4312 25.6758 15.2862C25.9658 15.1411 26.0834 14.7885 25.9383 14.4984Z" fill="#0879C9" fill-opacity="0.8"/>
<path d="M29.7852 13.0619C29.4962 12.918 29.1425 13.0344 28.9974 13.3245L28.4103 14.4986C28.2652 14.7888 28.3828 15.1413 28.6729 15.2864C28.9658 15.4319 29.3162 15.3118 29.4606 15.0238L30.0477 13.8497C30.1928 13.5595 30.0752 13.2069 29.7852 13.0619Z" fill="#0879C9" fill-opacity="0.8"/>
<path d="M23.6514 16.5222H22.4772C22.1528 16.5222 21.8901 16.7848 21.8901 17.1093C21.8901 17.4338 22.1527 17.6964 22.4772 17.6964H23.6514C23.9759 17.6964 24.2385 17.4339 24.2385 17.1093C24.2385 16.7848 23.9759 16.5222 23.6514 16.5222Z" fill="#0879C9" fill-opacity="0.8"/>
<path d="M20.1289 22.4326H17.7805C17.4562 22.4326 17.1934 22.6955 17.1934 23.0197V32.4131C17.1934 32.7374 17.4562 33.0003 17.7805 33.0003H20.1288C20.453 33.0003 20.7159 32.7374 20.7159 32.4131V23.0197C20.7159 22.6955 20.4531 22.4326 20.1289 22.4326Z" fill="#0879C9" fill-opacity="0.8"/>
<path d="M34.7944 23.9887C34.6909 23.078 33.8402 22.4325 32.9236 22.4325H28.3464C28.7354 21.7359 28.9442 19.7659 28.9349 18.9611C28.9196 17.629 27.8164 16.5615 26.4843 16.5615H25.9998C25.6753 16.5615 25.4127 16.8241 25.4127 17.1486C25.4127 18.5062 24.8841 20.9567 23.8871 21.9537C23.216 22.6248 22.6424 22.868 21.8901 23.2439V32.0532C23.0418 32.437 24.5041 33.0001 26.7329 33.0001H30.5733C31.8388 33.0001 32.8243 31.8281 32.3339 30.5899C33.081 30.3863 33.632 29.7012 33.632 28.8905C33.632 28.6617 33.5878 28.4427 33.5081 28.2415C34.7671 27.8985 35.2305 26.344 34.3567 25.3679C34.6777 25.0093 34.8547 24.5187 34.7944 23.9887Z" fill="#0879C9" fill-opacity="0.8"/>
</g>
<defs>
<clipPath id="clip0">
<rect width="20" height="20" fill="white" transform="translate(16 13)"/>
</clipPath>
</defs>
</svg>
