<svg width="28" height="28" viewBox="0 0 28 28" fill="none" xmlns="http://www.w3.org/2000/svg">
<circle cx="14" cy="14" r="14" fill="#E3F2FD"/>
<g clip-path="url(#clip0)">
<path d="M17.1408 11.7567C17.1408 13.491 15.7345 14.8977 13.9997 14.8977C12.265 14.8977 10.8587 13.491 10.8587 11.7567C10.8587 10.0215 12.265 8.61523 13.9997 8.61523C15.7345 8.61523 17.1408 10.0215 17.1408 11.7567ZM16.4237 14.9785C15.7479 15.4887 14.9097 15.7952 13.9997 15.7952C13.0888 15.7952 12.2502 15.4878 11.5735 14.9776C9.74633 15.7822 8.61511 18.2873 8.61511 19.3845H19.3843C19.3843 18.2972 18.2177 15.792 16.4237 14.9785Z" fill="#127FCB" fill-opacity="0.5"/>
</g>
<defs>
<clipPath id="clip0">
<rect width="10.7692" height="10.7692" fill="white" transform="translate(8.61511 8.61523)"/>
</clipPath>
</defs>
</svg>
