<svg width="28" height="28" viewBox="0 0 28 28" fill="none" xmlns="http://www.w3.org/2000/svg">
<circle cx="14" cy="14" r="14" fill="#E3F2FD"/>
<g clip-path="url(#clip0)">
<path d="M18.3058 18.3078H9.69402L9.69258 17.8605C9.69258 16.9566 9.76437 16.4346 10.8327 16.1877C12.0417 15.9084 13.2335 15.6593 12.6599 14.6017C10.9612 11.4693 12.176 9.69238 13.9996 9.69238C15.788 9.69238 17.0336 11.4033 15.3392 14.6024C14.7828 15.6535 15.9323 15.9034 17.1664 16.1884C18.2362 16.4354 18.3072 16.958 18.3072 17.8634L18.3058 18.3078ZM21.7599 16.7182C20.8337 16.5043 19.9722 16.3169 20.3893 15.5286C21.6593 13.1292 20.726 11.8462 19.3842 11.8462C18.476 11.8462 17.7702 12.4328 17.7702 13.5147C17.7702 16.3169 19.3985 14.7855 19.3827 18.3078H22.6142L22.6157 17.9754C22.6157 17.2962 22.5625 16.9035 21.7599 16.7182ZM5.38632 18.3078H8.61781C8.60273 14.7855 10.2303 16.3176 10.2303 13.5147C10.2303 12.4328 9.52458 11.8462 8.61637 11.8462C7.27453 11.8462 6.3412 13.1292 7.61196 15.5286C8.02909 16.3176 7.16755 16.5043 6.2414 16.7182C5.43802 16.9035 5.38489 17.2962 5.38489 17.9754L5.38632 18.3078Z" fill="#127FCB" fill-opacity="0.5"/>
</g>
<defs>
<clipPath id="clip0">
<rect width="17.2308" height="17.2308" fill="white" transform="translate(5.38489 5.38477)"/>
</clipPath>
</defs>
</svg>
